<?xml version="1.0" encoding="UTF-8"?>
<svg id="Layer_1" data-name="Layer 1" xmlns="http://www.w3.org/2000/svg" viewBox="0 0 453.54 453.54">
  <defs>
    <style>
      .cls-1 {
        fill: #e9abb8;
        stroke-width: 0px;
      }
    </style>
  </defs>
  <path class="cls-1" d="m450.14,8.72c.51-2.73-.56-5.62-2.95-7.33-3.06-2.19-7.3-1.75-9.84,1.01l-3.97,4.32-6.27,2.67c-2.23-.68-4.71-.74-7.3-.11-1.48.36-1.92.28-3.24.02-2.89-.56-5.91-.9-10.72.62-1.7-.1-3.69.14-6.82,1.16-3.93,1.28-6.38,4.35-8.16,6.59l-.59.75c-11.24,2.87-15.67,9.13-17.4,14.01-.34.95-.57,1.89-.75,2.83-11.84-8.9-28.12-9.71-41.94-1.7-15.86,9.2-22.95,26.62-18.06,44.39,7.88,28.7,35.35,55.73,51.75,71.89l5.32,5.27c8.55,8.64,19.6,26.07,17.4,37.71-.54,2.9-2.09,7.12-9.25,10.33-3.65,1.64-7.14,2.65-10.52,3.05,6.06-16.84,3.13-34.94-8.37-46.8-16.41-16.9-31.92-12.68-37.84-8.09-2.49,1.94-3.48,5.24-2.45,8.21,1.04,2.97,3.87,4.97,7.05,4.97,7.88,0,16.74,5.81,20.59,13.52,3.24,6.5,2.62,13.55-1.78,20.55-3.33-2.7-6.21-5.67-8.67-8.23-1.01-1.05-1.97-2.04-2.81-2.86l-.61-.67c-11.78-13.16-23.78-20.84-35.8-22.94-1.51-21.06-16.52-42.37-39.27-54.76-1.84-1.01-3.76-1.9-5.74-2.72-4.24-22.01-17.82-36.76-39.48-42.8-31.61-8.83-56.71,5.17-68.86,38.4-4.15,11.34-12.96,49.99-20.2,82.39l-1.36,6.07c-.97,4.28-6,11.99-11.37,13.82-1.48.52-3.35.76-5.93-1.34-5.27-4.25-2.16-16.52-.48-23.11.33-1.28.6-2.38.83-3.39,1.37-6.28-.71-13.28-5.44-18.27-4.62-4.88-11.01-7.12-17.53-6.14-13.82,2.06-18.2,13.14-19.92,18.14-1.34-2.54-3.18-5.86-6.67-7.84-2.83-1.6-4.72-2.24-6.42-2.48-4.45-2.48-7.47-2.72-10.44-2.74-1.33,0-1.79,0-3.16-.67-2.75-1.3-5.59-1.7-8.24-1.2l-5.12-3.22-3.24-4.9c-2.09-3.17-6.26-4.24-9.66-2.49-2.57,1.33-4.05,3.97-3.99,6.72-2.56,1.12-4.35,3.63-4.42,6.54-.1,3.74,2.66,6.96,6.4,7.48l5.84.82,5.05,3.17c.64,2.51,2.14,4.88,4.45,6.82,1.16.99,1.35,1.39,1.91,2.61,1.23,2.67,2.69,5.31,6.78,8.32.91,1.41,2.26,2.87,4.9,4.79,3.34,2.42,7.28,2.6,10.15,2.72.28.02.63.03.97.05,8.89,7.39,16.62,7.33,21.62,5.87.96-.28,1.87-.64,2.75-1.04-.4,14.72,8.42,28.32,23.02,34.78,16.77,7.44,35.19,3,46.92-11.28,18.93-23.07,25.12-60.95,28.81-83.57l1.23-7.36c2.11-11.92,9.95-30.98,20.78-35.99,2.69-1.25,7.06-2.45,13.87,1.45,3.47,1.98,6.33,4.2,8.62,6.69-17.33,4.93-30.47,17.84-33.49,34.01-4.31,23.05,8.18,33.1,15.39,35.2,3.05.89,6.32-.24,8.16-2.82,1.84-2.56,1.82-6-.02-8.55-4.61-6.36-4.99-16.88-.91-24.48,3.44-6.4,9.59-10,17.88-10.53-.25,4.26-1.03,8.31-1.68,11.79-.27,1.42-.54,2.77-.71,3.93-.02.12-.13.54-.21.88-3.58,15.61-3.32,28.76.75,39.25-17.45,10.68-29.82,32.52-31.62,56.92-.16,2.08-.19,4.2-.1,6.3-18.41,13-26.28,31.38-22.8,53.43,5.07,32.17,28.36,48.95,63.91,46.06,12.12-.98,51.24-9.13,83.97-16.11l6.12-1.31c4.34-.9,13.5.42,17.41,4.49,1.09,1.13,2.09,2.71,1.25,5.91-1.7,6.52-14.25,8.82-21,10.07-1.3.23-2.43.44-3.44.66-6.33,1.39-11.89,6.18-14.5,12.51-2.55,6.19-1.95,12.89,1.66,18.36,7.65,11.6,19.63,10.93,24.93,10.4-1.76,2.27-4.05,5.31-4.41,9.28-.29,3.21-.08,5.19.39,6.8-.43,5.04.61,7.88,1.83,10.55.55,1.21.73,1.62.71,3.13-.05,3.12.83,5.91,2.5,8.14l-1.1,7.57-3.17,4.94c-2.07,3.2-1.35,7.41,1.65,9.75,2.22,1.74,5.26,2.08,7.81.86,2.09,1.86,5.13,2.45,7.84,1.32,3.48-1.45,5.32-5.25,4.27-8.85l-1.64-5.62,1.16-8.05c1.93-1.62,3.39-3.89,4.19-6.65.4-1.45.7-1.79,1.59-2.8,1.93-2.21,3.74-4.63,4.8-9.57.93-1.4,1.7-3.24,2.36-6.42.83-4.02-.65-7.64-1.73-10.29l-.36-.89c3.08-11.09-.2-18.02-3.61-21.93-.67-.75-1.38-1.42-2.1-2.04,13.66-5.77,22.46-19.38,22.31-35.24-.19-18.22-11.92-32.96-29.89-37.59-29.05-7.45-66.35,2.75-88.63,8.85l-7.26,1.96c-11.82,3.07-32.56,3.93-41.66-3.74-2.26-1.91-5.19-5.33-4.44-13.11.37-3.95,1.22-7.45,2.54-10.54,11.74,13.57,29.05,20.03,45.14,16.01,22.93-5.72,26.95-21.16,25.86-28.53-.45-3.11-2.85-5.6-5.97-6.18-3.12-.58-6.27.86-7.84,3.59-3.92,6.79-13.4,11.53-22.08,11.01-7.3-.43-13.17-4.47-17.11-11.74,4.02-1.53,8.04-2.53,11.51-3.38,1.43-.35,2.77-.67,3.9-.99.3-.06.6-.12.89-.19,17.96-3.73,30.9-10.57,38.6-20.32,17.97,9.04,42.2,8.52,64.04-1.85,1.89-.9,3.75-1.93,5.56-3.05,20.53,9.38,40.54,7.03,58.11-6.91,25.63-20.33,28.77-48.72,8.59-77.86-6.89-9.95-33.44-39.56-55.82-64.26l-4.18-4.63c-2.94-3.29-6.33-11.82-4.71-17.22.45-1.5,1.34-3.14,4.56-4.01,6.55-1.77,14.8,7.88,19.23,13.07.86,1.01,1.59,1.87,2.3,2.64,4.36,4.77,11.31,7.16,18.14,6.26,6.7-.88,12.26-4.73,15.26-10.56,6.35-12.34-.19-22.32-3.28-26.62,2.86.4,6.66.85,10.32-.82,2.96-1.34,4.58-2.51,5.76-3.72,4.62-2.13,6.59-4.43,8.32-6.81.8-1.07,1.06-1.44,2.39-2.17,3.66-2,5.34-4.66,6.12-6.74l5.46-2.33,5.9.11c3.82.08,7.08-2.73,7.53-6.5.33-2.85-1.04-5.54-3.36-7.03m-202.39,205.83c-2.35,6.41-16.86,12.69-27.14,16.51,2.73-5.13,6.36-9.96,10.56-13.84,7.95-7.35,14.61-7.15,16.01-6.41,1.03,1.8.89,2.87.57,3.74Zm10.94-39.63c-2.08.17-2.99-.39-3.66-1.04-4.91-4.8-4.61-20.48-3.83-31.34,3.57,4.6,6.49,9.89,8.3,15.29,3.42,10.21.47,16.14-.8,17.09h0Zm37.79,36.71c-10.38-3.19-13.52-9.02-13.55-10.58,1.06-1.79,2.07-2.2,2.98-2.36,6.79-1.16,19.48,8.21,27.93,15.17-5.84.2-11.87-.53-17.36-2.22h0Z"/>
  <path class="cls-1" d="m446.1,14.9l-6.67-1.47,3.42-6.05-5.06,5.5-11.02,4.7c-.98-1.04-2.63-1.75-5.18-1.13-6.73,1.67-6.93-1.89-14.41.81-1.53.56-1.02-.73-5.85.85-3.36,1.09-5.63,6.68-7.88,7.16-21.7,4.61-13.1,22.96-10.1,26.59,3.72,4.52.63,6.07-1.02,4.44-2.57-2.55-5.76-6.74-11.87-12.71-20.95-20.49-59.99.34-51.16,32.44,8.32,30.23,41.39,59.98,55.21,73.94,12.51,12.64,34.25,47.18,5.9,59.92-9.64,4.34-17.9,4.67-24.94,2.9,9.89-15.99,9.32-36.21-2.37-48.25-16.08-16.57-27.9-7.4-27.9-7.4,18.72-.01,42.22,23.47,22.85,48.64-.78,1.01-1.61,1.97-2.49,2.89-8.3-4.87-14.26-12.03-18.3-15.99-1.8-1.76-18.19-22.47-38.56-22.03,1.78-21.49-13.9-43.34-35.4-55.06-2.81-1.53-5.77-2.78-8.82-3.75-2.11-16.07-10.07-34.21-34.86-41.13-37.75-10.54-53.83,17.36-59.85,33.83-5.16,14.1-18.97,77.33-21.29,87.58-2.21,9.77-16.02,27.27-29.25,16.58-10.21-8.24-3.78-26.68-2.23-33.77,1.66-7.63-5.17-16.98-14.59-15.57-11.29,1.68-13.41,11.97-14.7,15.29-2.73,6.98-9.11,3.53-10.39,2.7-1.93-1.24-3.21-6.83-6.29-8.58-4.42-2.5-4.17-1.14-5.56-1.98-6.78-4.14-7.7-.69-13.96-3.65-1.95-.92-3.5-.83-4.63-.31-.38.24-.64.5-1,.82l-9.87-6.21-4.11-6.22,2.54,6.29-6.96.62,7.43,1.04,9.74,6.13c-.5,1.45-.31,3.43,1.95,5.34,5.27,4.47,2.48,6.69,9.05,11.15,1.35.91-.01,1.24,4.1,4.22,2.85,2.07,8.75.65,10.46,2.19,16.41,14.8,26.46-2.8,27.69-7.34,1.54-5.63,4.61-4.04,4.24-1.77-.6,3.56-2.18,8.56-3.51,16.97-4.61,28.83,35.21,48.17,56.4,22.36,19.94-24.3,25.09-68.28,28.49-87.56,3.09-17.44,18.76-55.08,45.7-39.65,9.17,5.24,14.24,11.72,16.9,18.41-18.88,1.34-35.12,13.58-38.19,30.02-4.22,22.59,10.18,26.78,10.18,26.78-10.92-15.08-5.33-47.7,26.58-46.74,1.28.04,2.55.15,3.82.33.83,9.52-1.56,18.5-2.45,24.06-.39,2.39-7.3,25.94,3.12,42.1-19.54,7.97-32.37,30.62-34.11,54.24-.24,3.27-.15,6.44.22,9.51-13.86,8.6-27.16,23.34-23.18,48.56,6.06,38.42,38.34,41.28,55.95,39.85,15.06-1.23,78.81-15.12,89.16-17.29,9.88-2.07,31.69,3.08,27.4,19.46-3.31,12.63-22.89,14.52-30.03,16.08-7.71,1.68-13.42,11.74-8.2,19.64,6.25,9.48,16.57,7.1,20.13,6.89,7.55-.44,7.03,6.74,6.81,8.25-.33,2.26-4.93,5.75-5.24,9.23-.45,5.03.69,4.23.5,5.84-.97,7.84,2.57,7.22,2.46,14.1-.03,2.08.66,3.41,1.57,4.22l.03-.04.27.28.27.2h0c.27.19.56.32.87.42l-1.91,13.14-4.04,6.28,4.76-4.88,3.43,6.05-2.09-7.15,1.93-13.27c1.47-.23,3.07-1.27,3.84-3.96,1.9-6.62,5.11-5.02,6.45-12.8.28-1.59,1.14-.51,2.16-5.45.72-3.43-3.04-8.16-2.35-10.34,6.74-20.97-13.6-22.68-18.26-21.91-5.8.96-5.63-2.47-3.39-3.08,3.52-.95,8.75-1.62,17.02-3.91,28.36-7.87,29.5-51.8-2.99-60.14-30.6-7.85-73.07,5.84-92.15,10.8-17.28,4.48-58.32,6.05-55.39-24.67.99-10.45,4.8-17.72,9.84-22.9,9.09,16.44,27.08,25.99,43.43,21.9,22.49-5.6,20.33-20.32,20.33-20.32-9.28,16.11-41.51,24.68-53.93-4.48-.49-1.17-.92-2.36-1.29-3.57,8.39-4.72,17.61-6.3,23.09-7.81,2.49-.68,29.84-4.66,39.02-23.41,16.72,11.95,42.18,11.53,63.2,1.53,2.98-1.41,5.71-3.08,8.22-4.91,14.41,7.65,33.93,11.78,54.03-4.16,30.63-24.3,17.1-53.5,7.11-67.94-8.56-12.36-52.37-60.31-59.42-68.15-6.7-7.48-13.03-28.79,3.44-33.24,12.7-3.43,24.08,12.49,29,17.87,5.3,5.79,16.93,5.72,21.27-2.7,5.19-10.09-2.02-17.78-3.97-20.75-4.13-6.28,2.41-9.39,3.84-9.95,2.14-.83,7.48,1.39,10.69-.08,4.63-2.1,3.37-2.7,4.86-3.33,7.35-3.06,5.05-5.8,11.12-9.13,1.67-.92,2.51-2.03,2.85-3.11l-.06-.21c.27-.93.24-1.58.1-2.08l10.82-4.61,7.5.14m-201.57,118.57c.21-2.01.39-4.35.51-6.94,10.42,7.05,17.97,18.44,21.51,28.96,5.11,15.28-.56,26.03-6.7,26.72-20.44,2.32-16.88-33.11-15.31-48.74h0Zm-29.45,107.36c-1.92.66-4.15,1.46-6.59,2.44,2.13-12.33,9.44-23.88,17.61-31.44,11.87-10.98,24.09-10.34,27.29-5.09,10.64,17.45-23.34,29-38.31,34.1Zm79.19-22.16c-15.51-4.76-21.02-15.6-18.02-20.96,10-17.83,36.99,5.67,48.89,16.04,1.52,1.33,3.33,2.86,5.4,4.45-11.85,4.29-25.6,3.75-36.28.47Z"/>
</svg>